<svg xmlns="http://www.w3.org/2000/svg">
<symbol id="done" viewBox="0 0 40 40"><path d="M12.712 28.812l-9.483-9.483-3.229 3.206 12.712 12.712 27.288-27.288-3.206-3.206-24.082 24.059z"></path></symbol>
<symbol id="arrow-back" viewBox="0 0 40 40"><path d="M20 40l3.525-3.525-13.95-13.975h30.425v-5h-30.425l13.95-13.975-3.525-3.525-20 20 20 20z"></path></symbol>
<symbol id="arrow-forward" viewBox="0 0 40 40"><path d="M20-0l-3.525 3.525 13.95 13.975h-30.425v5h30.425l-13.95 13.975 3.525 3.525 20-20-20-20z"></path></symbol>
<symbol id="chevron-down" viewBox="0 0 40 40"><path d="M4.7 7.65l15.3 15.267 15.3-15.267 4.7 4.7-20 20-20-20 4.7-4.7z"></path></symbol>
<symbol id="chevron-up" viewBox="0 0 40 40"><path d="M35.3 32.35l-15.3-15.267-15.3 15.267-4.7-4.7 20-20 20 20-4.7 4.7z"></path></symbol>
<symbol id="help" viewBox="0 0 40 40"><path d="M18 32h4v-4h-4v4zM20 0c-11.040 0-20 8.96-20 20s8.96 20 20 20c11.040 0 20-8.96 20-20s-8.96-20-20-20zM20 36c-8.82 0-16-7.18-16-16s7.18-16 16-16c8.82 0 16 7.18 16 16s-7.18 16-16 16zM20 8c-4.42 0-8 3.58-8 8h4c0-2.2 1.8-4 4-4s4 1.8 4 4c0 4-6 3.5-6 10h4c0-4.5 6-5 6-10 0-4.42-3.58-8-8-8z"></path></symbol>
<symbol id="menu" viewBox="0 0 40 40"><path d="M0 33.333h40v-4.444h-40v4.444zM0 22.222h40v-4.444h-40v4.444zM0 6.667v4.444h40v-4.444h-40z"></path></symbol>
<symbol id="search" viewBox="0 0 40 40"><path d="M28.588 25.157h-1.807l-0.64-0.617c2.241-2.607 3.591-5.992 3.591-9.674 0-8.21-6.655-14.866-14.866-14.866s-14.866 6.655-14.866 14.866c0 8.21 6.655 14.866 14.866 14.866 3.682 0 7.067-1.349 9.674-3.591l0.617 0.64v1.807l11.435 11.412 3.408-3.408-11.412-11.435zM14.866 25.157c-5.695 0-10.292-4.597-10.292-10.292s4.597-10.292 10.292-10.292c5.695 0 10.292 4.597 10.292 10.292s-4.597 10.292-10.292 10.292z"></path></symbol>
<symbol id="close" viewBox="0 0 40 40"><path d="M40 4.029l-4.029-4.029-15.971 15.971-15.971-15.971-4.029 4.029 15.971 15.971-15.971 15.971 4.029 4.029 15.971-15.971 15.971 15.971 4.029-4.029-15.971-15.971 15.971-15.971z"></path></symbol>
<symbol id="account-circle" viewBox="0 0 40 40"><path d="M20 0c-11.040 0-20 8.96-20 20s8.96 20 20 20c11.040 0 20-8.96 20-20s-8.96-20-20-20zM10.14 32.56c0.86-1.8 6.1-3.56 9.86-3.56s9.020 1.76 9.86 3.56c-2.72 2.16-6.14 3.44-9.86 3.44s-7.14-1.28-9.86-3.44zM32.72 29.66c-2.86-3.48-9.8-4.66-12.72-4.66s-9.86 1.18-12.72 4.66c-2.040-2.68-3.28-6.020-3.28-9.66 0-8.82 7.18-16 16-16s16 7.18 16 16c0 3.64-1.24 6.98-3.28 9.66zM20 8c-3.88 0-7 3.12-7 7s3.12 7 7 7c3.88 0 7-3.12 7-7s-3.12-7-7-7zM20 18c-1.66 0-3-1.34-3-3s1.34-3 3-3c1.66 0 3 1.34 3 3s-1.34 3-3 3z"></path></symbol>
<symbol id="tune-variant" viewBox="0 0 40 40"><path d="M12 22c-3.72 0-6.82 2.56-7.72 6h-4.28v4h4.28c0.9 3.44 4 6 7.72 6s6.82-2.56 7.72-6h20.28v-4h-20.28c-0.9-3.44-4-6-7.72-6zM12 34c-2.2 0-4-1.8-4-4s1.8-4 4-4 4 1.8 4 4c0 2.2-1.8 4-4 4zM35.72 8c-0.9-3.44-4-6-7.72-6s-6.82 2.56-7.72 6h-20.28v4h20.28c0.9 3.44 4 6 7.72 6s6.82-2.56 7.72-6h4.28v-4h-4.28zM28 14c-2.2 0-4-1.8-4-4s1.8-4 4-4c2.2 0 4 1.8 4 4s-1.8 4-4 4z"></path></symbol>
<symbol id="language" viewBox="0 0 40 40"><path d="M20 40c-2.733 0-5.317-0.525-7.75-1.575s-4.558-2.483-6.375-4.3c-1.817-1.817-3.25-3.942-4.3-6.375s-1.575-5.017-1.575-7.75c0-2.767 0.525-5.358 1.575-7.775s2.483-4.533 4.3-6.35c1.817-1.817 3.942-3.25 6.375-4.3s5.017-1.575 7.75-1.575c2.767 0 5.358 0.525 7.775 1.575s4.533 2.483 6.35 4.3c1.817 1.817 3.25 3.933 4.3 6.35s1.575 5.008 1.575 7.775c0 2.733-0.525 5.317-1.575 7.75s-2.483 4.558-4.3 6.375c-1.817 1.817-3.933 3.25-6.35 4.3s-5.008 1.575-7.775 1.575zM20 35.9c0.867-1.2 1.617-2.45 2.25-3.75s1.15-2.683 1.55-4.15h-7.6c0.4 1.467 0.917 2.85 1.55 4.15s1.383 2.55 2.25 3.75zM14.8 35.1c-0.6-1.1-1.125-2.242-1.575-3.425s-0.825-2.408-1.125-3.675h-5.9c0.967 1.667 2.175 3.117 3.625 4.35s3.108 2.15 4.975 2.75zM25.2 35.1c1.867-0.6 3.525-1.517 4.975-2.75s2.658-2.683 3.625-4.35h-5.9c-0.3 1.267-0.675 2.492-1.125 3.675s-0.975 2.325-1.575 3.425zM4.5 24h6.8c-0.1-0.667-0.175-1.325-0.225-1.975s-0.075-1.325-0.075-2.025c0-0.7 0.025-1.375 0.075-2.025s0.125-1.308 0.225-1.975h-6.8c-0.167 0.667-0.292 1.325-0.375 1.975s-0.125 1.325-0.125 2.025c0 0.7 0.042 1.375 0.125 2.025s0.208 1.308 0.375 1.975zM15.3 24h9.4c0.1-0.667 0.175-1.325 0.225-1.975s0.075-1.325 0.075-2.025c0-0.7-0.025-1.375-0.075-2.025s-0.125-1.308-0.225-1.975h-9.4c-0.1 0.667-0.175 1.325-0.225 1.975s-0.075 1.325-0.075 2.025c0 0.7 0.025 1.375 0.075 2.025s0.125 1.308 0.225 1.975zM28.7 24h6.8c0.167-0.667 0.292-1.325 0.375-1.975s0.125-1.325 0.125-2.025c0-0.7-0.042-1.375-0.125-2.025s-0.208-1.308-0.375-1.975h-6.8c0.1 0.667 0.175 1.325 0.225 1.975s0.075 1.325 0.075 2.025c0 0.7-0.025 1.375-0.075 2.025s-0.125 1.308-0.225 1.975zM27.9 12h5.9c-0.967-1.667-2.175-3.117-3.625-4.35s-3.108-2.15-4.975-2.75c0.6 1.1 1.125 2.242 1.575 3.425s0.825 2.408 1.125 3.675zM16.2 12h7.6c-0.4-1.467-0.917-2.85-1.55-4.15s-1.383-2.55-2.25-3.75c-0.867 1.2-1.617 2.45-2.25 3.75s-1.15 2.683-1.55 4.15zM6.2 12h5.9c0.3-1.267 0.675-2.492 1.125-3.675s0.975-2.325 1.575-3.425c-1.867 0.6-3.525 1.517-4.975 2.75s-2.658 2.683-3.625 4.35z"></path></symbol>
<symbol id="distance" viewBox="0 0 40 40"><path d="M20 40c-3.533 0-6.417-0.558-8.65-1.675s-3.35-2.558-3.35-4.325c0-1.167 0.483-2.183 1.45-3.050s2.3-1.55 4-2.050l1.15 3.8c-0.567 0.167-1.083 0.375-1.55 0.625s-0.783 0.475-0.95 0.675c0.433 0.533 1.433 1 3 1.4s3.2 0.6 4.9 0.6 3.342-0.2 4.925-0.6c1.583-0.4 2.592-0.867 3.025-1.4-0.167-0.2-0.483-0.425-0.95-0.675s-0.983-0.458-1.55-0.625l1.15-3.8c1.7 0.5 3.025 1.183 3.975 2.050s1.425 1.883 1.425 3.050c0 1.767-1.117 3.208-3.35 4.325s-5.117 1.675-8.65 1.675zM20 26.65c0.6-1.1 1.233-2.108 1.9-3.025s1.317-1.792 1.95-2.625c1.233-1.6 2.217-3.042 2.95-4.325s1.1-2.875 1.1-4.775c0-2.2-0.767-4.067-2.3-5.6s-3.4-2.3-5.6-2.3c-2.2 0-4.067 0.767-5.6 2.3s-2.3 3.4-2.3 5.6c0 1.9 0.367 3.492 1.1 4.775s1.717 2.725 2.95 4.325c0.633 0.833 1.283 1.708 1.95 2.625s1.3 1.925 1.9 3.025zM20 34c-0.367 0-0.7-0.108-1-0.325s-0.517-0.508-0.65-0.875c-0.767-2.367-1.733-4.35-2.9-5.95s-2.3-3.133-3.4-4.6c-1.067-1.467-1.992-2.983-2.775-4.55s-1.175-3.5-1.175-5.8c0-3.333 1.15-6.15 3.45-8.45s5.117-3.45 8.45-3.45c3.333 0 6.15 1.15 8.45 3.45s3.45 5.117 3.45 8.45c0 2.3-0.383 4.233-1.15 5.8s-1.7 3.083-2.8 4.55c-1.067 1.467-2.192 3-3.375 4.6s-2.158 3.583-2.925 5.95c-0.133 0.367-0.35 0.658-0.65 0.875s-0.633 0.325-1 0.325zM20 16.15c1.167 0 2.167-0.417 3-1.25s1.25-1.833 1.25-3c0-1.167-0.417-2.167-1.25-3s-1.833-1.25-3-1.25c-1.167 0-2.167 0.417-3 1.25s-1.25 1.833-1.25 3c0 1.167 0.417 2.167 1.25 3s1.833 1.25 3 1.25z"></path></symbol>
<symbol id="location-on" viewBox="0 0 40 40"><path d="M20 0c-7.74 0-14 6.26-14 14 0 10.5 14 26 14 26s14-15.5 14-26c0-7.74-6.26-14-14-14zM10 14c0-5.52 4.48-10 10-10s10 4.48 10 10c0 5.76-5.76 14.38-10 19.76-4.16-5.34-10-14.060-10-19.76z"></path><path d="M20 19c2.761 0 5-2.239 5-5s-2.239-5-5-5c-2.761 0-5 2.239-5 5s2.239 5 5 5z"></path></symbol>
<symbol id="location-on-filled" viewBox="0 0 40 40"><path d="M33.846 14.118c0-7.788-6.208-14.118-13.846-14.118s-13.846 6.33-13.846 14.118c0 10.588 13.846 25.882 13.846 25.882s13.846-15.294 13.846-25.882zM15.385 14.118c0-2.588 2.077-4.706 4.615-4.706s4.615 2.118 4.615 4.706c0 2.588-2.054 4.706-4.615 4.706-2.538 0-4.615-2.118-4.615-4.706z"></path></symbol>
<symbol id="receipt" viewBox="0 0 40 40"><path d="M35 3l-3-3-3 3-3-3-3 3-3-3-3 3-3-3-3 3-3-3-3 3-3-3v40l3-3 3 3 3-3 3 3 3-3 3 3 3-3 3 3 3-3 3 3 3-3 3 3v-40l-3 3zM34 34.18h-28v-28.36h28v28.36zM8 26h24v4h-24v-4zM8 18h24v4h-24v-4zM8 10h24v4h-24v-4z"></path></symbol>
<symbol id="parking" viewBox="0 0 40 40"><path d="M21.111 0h-15.556v40h8.889v-13.333h6.667c7.356 0 13.333-5.978 13.333-13.333s-5.978-13.333-13.333-13.333zM21.556 17.778h-7.111v-8.889h7.111c2.444 0 4.444 2 4.444 4.444s-2 4.444-4.444 4.444z"></path></symbol>
<symbol id="directions-walk" viewBox="0 0 40 40"><path d="M21.861 7.442c2.046 0 3.721-1.674 3.721-3.721s-1.674-3.721-3.721-3.721c-2.046 0-3.721 1.674-3.721 3.721s1.674 3.721 3.721 3.721zM14.977 13.767l-5.209 26.233h3.907l3.349-14.884 3.907 3.721v11.163h3.721v-13.953l-3.907-3.721 1.116-5.581c2.419 2.791 6.14 4.651 10.233 4.651v-3.721c-3.535 0-6.512-1.86-8-4.465l-1.86-2.977c-1.042-1.656-3.126-2.326-4.93-1.563l-9.395 3.981v8.744h3.721v-6.326l3.349-1.302z"></path></symbol>
<symbol id="business" viewBox="0 0 40 40"><path d="M32 26h-4v4h4zM32 18h-4v4h4zM36 34h-16v-4h4v-4h-4v-4h4v-4h-4v-4h16zM16 10h-4v-4h4zM16 18h-4v-4h4zM16 26h-4v-4h4zM16 34h-4v-4h4zM8 10h-4v-4h4zM8 18h-4v-4h4zM8 26h-4v-4h4zM8 34h-4v-4h4zM20 10v-8h-20v36h40v-28h-20z"></path></symbol>
<symbol id="spinner" viewBox="0 0 40 40"><path d="M20.030 31.895c3.094 0 6.49-1.502 8.421-3.434 2.146-2.146 3.444-4.943 3.444-8.432h8.105c0 5.721-2.211 10.556-5.818 14.163-3.426 3.426-8.873 5.808-14.152 5.808v-8.105z"></path></symbol>
<symbol id="macaroni" viewBox="0 0 40 40"><path d="M40 16.234c-6.197 0-12.999 3.009-16.867 6.877-4.298 4.298-6.898 9.9-6.898 16.888h-16.234c0-11.458 4.429-21.144 11.653-28.368 6.863-6.863 17.773-11.632 28.347-11.632v16.234z"></path></symbol>
<symbol id="person" viewBox="0 0 40 40"><path d="M20 0c2.652 0 5.196 1.054 7.071 2.929s2.929 4.419 2.929 7.071c0 2.652-1.054 5.196-2.929 7.071s-4.419 2.929-7.071 2.929c-2.652 0-5.196-1.054-7.071-2.929s-2.929-4.419-2.929-7.071c0-2.652 1.054-5.196 2.929-7.071s4.419-2.929 7.071-2.929zM20 25c11.050 0 20 4.475 20 10v5h-40v-5c0-5.525 8.95-10 20-10z"></path></symbol>
<symbol id="drive-eta" viewBox="0 0 40 40"><path d="M35.333 4.444c-0.444-1.333-1.778-2.222-3.111-2.222h-24.444c-1.556 0-2.667 0.889-3.111 2.222l-4.667 13.333v17.778c0 1.111 1.111 2.222 2.222 2.222h2.222c1.333 0 2.222-1.111 2.222-2.222v-2.222h26.667v2.222c0 1.111 1.111 2.222 2.222 2.222h2.222c1.111 0 2.222-1.111 2.222-2.222v-17.778l-4.667-13.333zM8.444 6.667h22.889l2.444 6.667h-27.556l2.222-6.667zM35.556 28.889h-31.111v-11.111h31.111v11.111zM10 20c1.778 0 3.333 1.556 3.333 3.333s-1.556 3.333-3.333 3.333c-1.778 0-3.333-1.556-3.333-3.333s1.556-3.333 3.333-3.333zM30 20c1.778 0 3.333 1.556 3.333 3.333s-1.556 3.333-3.333 3.333c-1.778 0-3.333-1.556-3.333-3.333s1.556-3.333 3.333-3.333z"></path></symbol>
<symbol id="garage-door-lined" viewBox="0 0 40 40"><path d="M12 25v-4h16v4h-16zM12 31v-4h16v4h-16zM12 37v-4h16v4h-16zM20 3l20 18h-6v16h-4v-18h-20v18h-4v-16h-6l20-18zM20 8.4l-7.4 6.6h14.8l-7.4-6.6zM20 15v0z"></path></symbol>
<symbol id="logout" viewBox="0 0 40 40"><path d="M31.285 10.972l-3.182 3.182 3.566 3.588h-18.439v4.514h18.439l-3.566 3.566 3.182 3.205 9.028-9.028-9.028-9.028zM4.201 4.201h15.799v-4.514h-15.799c-2.483 0-4.514 2.031-4.514 4.514v31.597c0 2.483 2.031 4.514 4.514 4.514h15.799v-4.514h-15.799v-31.597z"></path></symbol>
<symbol id="lock-closed" viewBox="0 0 40 40"><path d="M31.429 13.333h-1.905v-3.81c0-5.257-4.267-9.524-9.524-9.524s-9.524 4.267-9.524 9.524v3.81h-1.905c-2.095 0-3.809 1.714-3.809 3.81v19.048c0 2.095 1.714 3.81 3.809 3.81h22.857c2.095 0 3.81-1.714 3.81-3.81v-19.048c0-2.095-1.714-3.81-3.81-3.81zM14.286 9.524c0-3.162 2.552-5.714 5.714-5.714s5.714 2.552 5.714 5.714v3.81h-11.429v-3.81zM31.429 36.19h-22.857v-19.048h22.857v19.048zM20 30.476c2.095 0 3.81-1.714 3.81-3.809s-1.714-3.81-3.81-3.81-3.809 1.714-3.809 3.81c0 2.095 1.714 3.809 3.809 3.809z"></path></symbol>
<symbol id="lock-open" viewBox="0 0 40 40"><path d="M31.429 13.333h-1.905v-3.81c0-5.257-4.267-9.524-9.524-9.524s-9.524 4.267-9.524 9.524h3.809c0-3.162 2.552-5.714 5.714-5.714s5.714 2.552 5.714 5.714v3.81h-17.143c-2.095 0-3.809 1.714-3.809 3.81v19.047c0 2.095 1.714 3.81 3.809 3.81h22.857c2.095 0 3.81-1.714 3.81-3.81v-19.047c0-2.095-1.714-3.81-3.81-3.81zM31.429 36.19h-22.857v-19.047h22.857v19.047zM20 30.476c2.095 0 3.81-1.714 3.81-3.809s-1.714-3.81-3.81-3.81c-2.095 0-3.809 1.714-3.809 3.81s1.714 3.809 3.809 3.809z"></path></symbol>
<symbol id="information" viewBox="0 0 40 40"><path d="M18 14h4v-4h-4v4zM20 36c-8.82 0-16-7.18-16-16s7.18-16 16-16c8.82 0 16 7.18 16 16s-7.18 16-16 16zM20 0c-2.626 0-5.227 0.517-7.654 1.522s-4.631 2.478-6.488 4.335c-3.751 3.751-5.858 8.838-5.858 14.142s2.107 10.391 5.858 14.142c1.857 1.857 4.062 3.33 6.488 4.335s5.027 1.522 7.654 1.522c5.304 0 10.391-2.107 14.142-5.858s5.858-8.838 5.858-14.142c0-2.626-0.517-5.227-1.522-7.654s-2.478-4.631-4.335-6.488-4.062-3.33-6.489-4.335c-2.426-1.005-5.027-1.522-7.654-1.522zM18 30h4v-12h-4v12z"></path></symbol>
<symbol id="subdirectory-arrow-right" viewBox="0 0 40 40"><path d="M37.647 25.882l-14.118 14.118-3.341-3.341 8.447-8.424h-26.282v-28.235h4.706v23.529h21.576l-8.447-8.424 3.341-3.341 14.118 14.118z"></path></symbol>
</svg>
